<?xml version="1.0" encoding="UTF-8" standalone="no"?>
<!-- Created with Inkscape (http://www.inkscape.org/) -->
<svg
   xmlns:svg="http://www.w3.org/2000/svg"
   xmlns="http://www.w3.org/2000/svg"
   version="1.0"
   width="735.52319"
   height="434.24573"
   id="svg2408"
   xml:space="preserve"><defs
     id="defs2411" /><g
     id="Logo"><path
       d="M 375.8105,422.16902 C 484.42165,422.16902 573.54163,337.31594 580.42327,230.40472 C 579.06469,229.24412 577.91093,228.24055 577.91093,228.24055 C 574.00586,224.94993 570.8313,220.88785 568.32579,216.34787 C 568.22338,216.53904 568.09366,216.70971 567.97078,216.90086 C 567.97078,216.96914 567.97078,217.05106 567.97078,217.12616 C 567.97078,323.07476 481.77276,409.2796 375.8105,409.2796 C 279.24224,409.2796 199.08614,337.67776 185.6369,244.77561 C 184.27831,244.8985 182.85147,244.95994 181.3427,244.95994 C 178.24322,244.95994 175.24616,244.3933 172.44025,243.3829 C 185.37064,344.08834 271.64376,422.16902 375.8105,422.16902 M 375.8105,12.076463 C 293.47659,12.076463 222.32532,60.862387 189.73311,131.03737 L 204.05621,131.03737 C 235.67216,68.187775 300.78832,24.959062 375.8105,24.959062 C 451.85674,24.959062 517.69656,69.34155 548.84145,133.55654 C 553.79105,135.98696 558.11937,139.44144 561.62164,143.82439 C 565.41747,148.37801 566.6873,149.9141 567.18566,150.56949 C 567.13105,150.46026 570.55139,155.02071 572.16257,158.01777 C 546.72507,73.683538 468.33718,12.076463 375.8105,12.076463"
       id="kreis_innen"
       style="fill:#231f20;fill-opacity:1;fill-rule:nonzero;stroke:none" /><path
       d="M 584.99055,234.33026 C 576.19734,342.04706 485.75291,427.00256 375.8105,427.00256 C 268.10053,427.00256 179.10344,345.44009 167.27903,240.85006 C 165.70199,239.82601 164.23418,238.65176 162.92339,237.30001 C 162.65713,237.51165 162.37722,237.69599 162.10414,237.90762 C 172.6041,346.5802 264.42759,431.82926 375.8105,431.82926 C 487.2412,431.82926 579.09882,346.51876 589.5237,237.78474 C 587.93983,236.75385 586.42422,235.59326 584.99055,234.33026 M 184.4012,131.03737 C 217.32795,58.12475 290.74577,7.2361 375.8105,7.2361 C 469.32709,7.2361 548.73222,68.720288 575.78089,153.36174 C 576.93466,151.77787 578.12939,150.24179 579.37191,148.78764 C 550.76667,63.81165 470.32384,2.416225 375.8105,2.416225 C 288.02861,2.416225 212.37835,55.387112 179.13756,131.03737 L 184.4012,131.03737"
       id="kreis_aussen"
       style="fill:#231f20;fill-opacity:1;fill-rule:nonzero;stroke:none" /><path
       d="M 120.09745,93.666237 L 85.040683,227.85824 L 57.159112,227.85824 L 72.806654,168.57235 L 47.430601,168.57235 L 31.974216,227.85824 L 4.0926466,227.85824 L 31.639693,122.48994 C 26.792505,124.81113 21.167036,126.08095 16.03994,126.13556 C 14.510686,126.1424 12.954125,126.08095 11.47266,125.91028 L 16.196963,107.89376 C 29.263888,107.89376 36.336686,102.42531 42.310333,93.666237 L 67.017336,93.666237 L 53.213091,146.41866 L 78.589144,146.41866 L 92.215885,93.666237 L 120.09745,93.666237 M 227.14521,227.85824 L 238.05479,186.25435 C 240.9631,175.00341 247.84475,162.93324 258.47442,162.93324 C 261.53976,162.93324 264.39345,163.87536 266.38695,165.07691 L 273.11839,139.35951 C 271.5277,138.67681 269.47959,138.16479 267.10379,138.16479 C 258.72703,138.16479 250.5619,145.6472 246.62271,152.00316 L 246.37011,152.00316 L 249.46958,139.62578 L 222.81005,139.62578 L 199.79615,227.85824 L 227.14521,227.85824 M 530.2856,137.98729 C 502.92289,137.98729 482.55786,163.97094 482.55786,194.00985 C 482.55786,214.55236 496.68299,229.02566 513.99631,229.02566 C 542.06221,229.02566 562.91877,203.27412 562.91877,174.83274 C 562.91877,151.9349 549.35348,137.98729 530.2856,137.98729 M 517.18454,208.4217 C 512.351,208.4217 508.54835,202.78258 508.54835,192.87656 C 508.54835,175.2014 516.97973,157.57401 528.16239,157.57401 C 533.91075,157.57401 536.98974,164.51028 536.98974,173.38541 C 536.98974,188.9442 527.71181,208.4217 517.18454,208.4217 M 343.81224,93.666237 L 329.83731,147.06722 L 329.64616,147.06722 C 326.88121,142.09715 320.36141,137.98045 312.09388,137.98045 C 288.09689,137.98045 267.62264,166.05319 267.62264,198.11289 C 267.62264,215.98604 280.19801,229.02566 293.55851,229.02566 C 304.29741,229.02566 311.5682,222.88134 315.73269,216.88721 L 315.8897,216.88721 L 313.1111,227.85824 L 336.07721,227.85824 L 371.12034,93.666237 L 343.81224,93.666237 M 303.08221,207.71169 C 297.74347,207.71169 294.81467,202.51632 294.81467,193.3408 C 294.81467,176.86719 303.60106,159.30125 314.78373,159.30125 C 319.74015,159.30125 323.2151,164.71509 323.2151,173.44685 C 323.2151,188.47314 314.21026,207.71169 303.08221,207.71169 M 192.57997,206.87196 C 191.474,207.1587 190.19735,207.3362 188.593,207.3362 C 185.60959,207.3362 184.19639,205.92301 184.19639,203.4448 C 184.18274,202.60507 184.32611,201.62881 184.58554,200.53649 L 200.50615,139.62578 L 173.75787,139.62578 L 171.42303,148.81495 L 171.24552,148.81495 C 168.80828,143.49669 162.30895,137.98729 153.46113,137.98729 C 129.47096,137.98729 109.00354,166.05319 109.00354,198.11289 C 109.00354,215.98604 121.55161,229.02566 134.91893,229.02566 C 146.72285,229.02566 153.75469,222.45124 157.93282,215.91777 L 158.1035,215.91777 C 160.20622,225.10695 167.85932,229.30557 174.86385,229.30557 C 181.1652,229.30557 184.84496,228.0494 187.49385,226.34946 L 192.57997,206.87196 M 144.44945,207.71169 C 139.11073,207.71169 136.18192,202.51632 136.18192,193.3408 C 136.18192,176.86719 144.96831,159.30125 156.16463,159.30125 C 161.10056,159.30125 164.58918,164.71509 164.58918,173.45368 C 164.58918,188.47314 155.5775,207.71169 144.44945,207.71169 M 477.94962,238.93167 C 472.7133,238.93167 468.76728,234.8969 468.76728,228.93691 C 468.76728,221.50227 469.73671,213.08456 469.73671,204.09336 C 469.73671,188.1113 461.28486,175.9865 454.93572,172.03366 L 454.9562,171.60355 C 473.12975,167.67801 492.02012,148.89004 492.02012,129.33061 C 492.02012,108.71983 479.04877,93.666237 450.51864,93.666237 L 424.17315,93.666237 C 418.19267,102.42531 411.13353,107.89376 398.0666,107.89376 L 393.33548,125.91028 C 394.82376,126.08095 396.36668,126.1424 397.90276,126.13556 C 403.02302,126.08095 408.6485,124.81113 413.50934,122.48994 L 385.94864,227.85824 L 413.83704,227.85824 L 427.29993,176.4644 C 436.14775,178.83338 444.32653,189.81806 444.32653,202.44805 C 444.32653,215.672 440.95398,222.3147 440.95398,236.58318 C 440.95398,252.21706 452.88079,261.73394 469.79133,261.73394 C 479.29455,261.73394 485.88945,258.37504 490.59327,254.39489 L 486.54485,236.80847 C 484.57184,238.11926 481.84103,238.93167 477.94962,238.93167 M 438.13441,156.46121 L 432.52943,156.46121 L 443.78036,113.28711 L 447.49426,113.28711 C 459.29819,113.28711 463.68797,120.87876 463.68797,130.2113 C 463.68797,143.85852 455.22929,156.46121 438.13441,156.46121 M 597.04707,191.77741 C 597.04707,171.37144 608.47551,157.38969 620.71638,157.38969 C 626.9631,157.38969 632.16529,160.99436 635.27841,164.11431 L 640.35773,144.45247 C 636.18641,141.51002 627.46148,137.98729 618.70923,137.98729 C 592.45931,137.98729 571.06342,165.66404 571.06342,192.86291 C 571.06342,214.21785 585.46844,229.02566 603.88093,229.02566 C 611.11757,229.02566 616.21736,227.59881 619.2076,226.32216 L 624.56681,205.568 C 621.05773,207.88919 617.31651,208.81084 611.07661,208.81084 C 602.6111,208.81084 597.04707,203.24681 597.04707,191.77741 M 708.87375,236.97231 C 703.41213,236.97231 701.35719,234.08449 701.35719,228.75257 C 701.35719,225.78965 701.51421,223.41385 701.51421,219.94571 C 701.51421,209.84172 696.78309,199.52609 690.4203,194.99976 L 690.4203,194.82226 C 706.06101,191.79106 725.66823,179.14741 725.66823,159.28078 C 725.66823,147.79089 717.17541,138.16479 702.27884,138.16479 C 693.41054,138.16479 685.28638,142.17908 679.82475,148.23465 L 679.64725,148.23465 L 693.79285,93.666237 L 666.54619,93.666237 L 631.48259,227.85824 L 658.81117,227.85824 L 665.94541,200.55014 C 672.46523,201.47179 678.67781,207.97111 678.67781,217.37876 C 678.67781,224.94993 677.60597,229.55818 677.60597,236.50807 C 677.60597,249.71837 687.14333,258.21802 701.63027,258.21802 C 708.51874,258.21802 715.86463,255.86953 719.79699,252.40822 L 716.00116,234.96518 C 714.52652,235.99605 711.43387,236.97231 708.87375,236.97231 M 670.20547,184.31547 C 672.93629,170.62729 684.57636,157.14391 694.29123,157.14391 C 698.40791,157.14391 700.76324,159.45827 700.76324,163.41795 C 700.76324,173.49464 687.19794,184.31547 670.20547,184.31547"
       id="text_HardRock"
       style="fill:#231f20;fill-opacity:1;fill-rule:evenodd;stroke:none" /><path
       d="M 127.44334,102.48675 L 92.393388,236.69241 L 64.518645,236.69241 L 65.672413,232.26168 L 88.713621,232.26168 L 122.61662,102.48675 L 127.44334,102.48675 M 63.952001,142.28831 L 74.363215,102.48675 L 69.529681,102.48675 L 59.118467,142.28831 L 63.952001,142.28831 M 24.314295,134.14366 L 25.638737,129.11898 C 23.508706,129.52177 21.371846,129.76071 19.310085,129.80167 L 18.217761,134.0003 C 19.699226,134.17097 21.242134,134.23242 22.791868,134.22559 C 23.297068,134.21194 23.815921,134.18462 24.314295,134.14366 M 406.19076,134.14366 L 407.50155,129.11898 C 405.37153,129.52177 403.22784,129.76071 401.17973,129.80167 L 400.07375,134.0003 C 401.56204,134.17097 403.1186,134.23242 404.64102,134.22559 C 405.14623,134.21194 405.67191,134.18462 406.19076,134.14366 M 66.20492,177.37921 L 67.372341,172.97579 L 51.110368,172.97579 L 35.653984,232.26168 L 12.592292,232.26168 L 11.438525,236.69241 L 39.320095,236.69241 L 54.783307,177.37921 L 66.20492,177.37921 M 531.75341,165.47289 C 530.91369,163.24728 529.69848,161.90235 528.31941,161.90235 C 520.36592,161.90235 512.84255,177.05152 512.84255,193.06089 C 512.84255,197.49846 513.71641,200.8164 514.91114,202.70065 C 514.87018,201.95651 514.83604,201.20554 514.83604,200.4136 C 514.83604,184.19259 521.93615,168.01254 531.75341,165.47289 M 566.38691,166.12828 C 566.82384,168.89322 567.0423,171.80154 567.0423,174.83274 C 567.0423,206.99485 543.25695,233.14919 513.99631,233.14919 C 510.51454,233.14919 507.1966,232.65764 504.063,231.72234 C 508.76681,234.7194 514.2694,236.37154 520.12699,236.37154 C 548.19289,236.37154 569.04263,210.61318 569.04263,182.17861 C 569.04263,176.18449 568.10049,170.80479 566.38691,166.12828 M 156.96339,223.7825 C 151.1058,229.90635 143.60972,233.14919 134.91893,233.14919 C 132.67966,233.14919 130.47454,232.8488 128.36499,232.31629 C 132.21543,234.92421 136.59838,236.37154 141.04276,236.37154 C 149.98618,236.37154 156.18511,232.60985 160.47248,227.93334 C 159.16852,226.74544 157.98061,225.3732 156.96339,223.7825 M 142.46279,200.87784 C 142.46279,185.81742 149.82233,169.81487 159.65324,167.21377 C 158.88179,164.995 157.68705,163.62276 156.32165,163.62276 C 148.31355,163.62276 140.4693,178.42375 140.4693,193.52513 C 140.4693,195.38891 140.66045,200.46821 142.49693,202.70065 C 142.48327,202.1067 142.46279,201.50592 142.46279,200.87784 M 188.593,203.66326 C 190.19735,203.66326 191.38525,203.47211 192.47758,203.04882 L 193.71326,202.56411 L 207.84521,148.44629 L 203.0185,148.44629 L 188.593,203.66326 M 279.87715,150.46026 L 280.83294,146.82828 C 279.58359,146.3026 278.03385,145.88615 276.28614,145.71547 L 271.86905,162.57823 C 274.16292,158.13384 276.85278,154.0581 279.87715,150.46026 M 265.00789,170.29959 L 265.43799,168.67476 C 265.43799,168.67476 263.10315,167.26839 260.05146,167.05675 C 259.14348,166.98166 258.25596,167.09771 257.36163,167.30935 C 249.23746,170.13574 244.23325,180.97706 241.73456,190.67144 L 230.81133,232.26168 L 208.30261,232.26168 L 207.14885,236.69241 L 234.50474,236.69241 L 245.41433,195.09535 C 248.31581,183.83759 253.97541,170.28594 264.59826,170.28594 C 264.74164,170.28594 264.885,170.28594 265.00789,170.29959 M 194.55299,233.01265 L 199.58451,213.77409 C 198.38295,214.1564 196.99706,214.38169 195.20839,214.40217 L 191.43304,228.88229 C 190.17686,229.88586 188.6954,230.80069 186.75653,231.49705 C 183.40446,232.8488 179.45844,233.51101 174.5225,233.51101 C 173.49845,233.51101 172.44025,233.42909 171.39573,233.28572 C 174.39279,235.36114 177.93601,236.37154 181.3427,236.37154 C 188.12194,236.37154 191.86314,234.93786 194.55299,233.01265 M 373.64634,102.48675 L 339.74332,232.26168 L 321.57661,232.26168 L 320.45699,236.69241 L 343.42993,236.69241 L 378.47987,102.48675 L 373.64634,102.48675 M 301.08871,200.87784 C 301.08871,185.81742 308.45507,169.81487 318.28599,167.21377 C 317.51454,164.995 316.32664,163.62276 314.9544,163.62276 C 306.9463,163.62276 299.10205,178.42375 299.10205,193.52513 C 299.10205,195.38891 299.28637,200.46821 301.1365,202.70065 C 301.1092,202.1067 301.08871,201.50592 301.08871,200.87784 M 308.39364,232.26168 L 309.26066,228.88912 C 304.63876,231.69502 299.37514,233.14919 293.55851,233.14919 C 291.30559,233.14919 289.10729,232.8488 287.00456,232.31629 C 290.84135,234.92421 295.2243,236.37154 299.67552,236.37154 C 305.56724,236.37154 310.27106,234.73987 314.02592,232.26168 L 308.39364,232.26168 M 495.7272,239.86015 C 494.67584,240.57016 493.39919,241.11632 491.84945,241.48499 L 495.18786,255.91731 L 493.25581,257.54215 C 486.736,263.05838 478.84396,265.86429 469.79133,265.86429 C 465.98185,265.86429 462.41131,265.40687 459.12751,264.57397 C 463.70845,267.12046 469.39536,268.46539 475.7718,268.46539 C 485.2955,268.46539 491.86992,265.12014 496.59422,261.13316 L 499.92581,258.04735 L 495.7272,239.86015 M 474.03774,203.84759 C 474.03774,208.68113 473.77149,213.26206 473.52571,217.67915 C 473.28676,221.59786 473.08879,225.2708 473.08879,228.69796 C 473.08879,231.91349 474.70679,234.08449 477.30789,234.45997 C 477.32154,227.14822 478.25001,218.89435 478.25001,210.0875 C 478.25001,199.36224 474.44054,190.3847 470.0371,184.43154 C 472.46753,190.09796 474.03774,196.727 474.03774,203.84759 M 620.71638,161.67706 C 611.39749,161.67706 601.33445,173.1806 601.33445,191.77741 C 601.33445,195.48449 601.96936,198.3928 603.21871,200.48187 C 603.20505,200.03129 603.17775,199.60801 603.17775,199.13695 C 603.17775,178.71049 614.5857,164.74922 626.84021,164.74922 C 627.84379,164.74922 628.8064,164.8448 629.75535,165.00865 C 627.53657,163.38381 624.35518,161.67706 620.71638,161.67706 M 692.35917,135.44762 L 700.90661,102.48675 L 696.31885,102.48675 L 687.2389,137.54353 C 688.97296,136.69697 690.76165,135.98696 692.35917,135.44762 M 729.91464,158.35912 C 729.91464,158.66634 729.9556,158.96672 729.9556,159.28078 C 729.9556,177.80249 715.11365,191.49068 698.51032,197.17759 C 699.31591,198.27674 700.05322,199.49195 700.76324,200.7413 C 715.39355,196.35835 731.43024,184.29499 731.43024,166.33309 C 731.43024,163.53401 730.90455,160.83734 729.91464,158.35912 M 721.37403,240.22881 L 724.34379,253.89651 L 722.5278,255.49404 C 717.82398,259.65852 709.62471,262.3552 701.63027,262.3552 C 698.72196,262.3552 695.96384,262.01385 693.41054,261.4199 C 697.2405,263.7206 702.07403,264.96312 707.63805,264.96312 C 714.50604,264.96312 721.84509,262.62145 725.77746,259.15332 L 729.12952,256.06068 L 725.3337,238.62446 C 724.43936,239.23889 722.96473,239.83967 721.37403,240.22881 M 430.46766,182.53363 L 417.50315,232.26168 L 394.44829,232.26168 L 393.30134,236.69241 L 421.17609,236.69241 L 434.3659,186.11781 C 433.15751,184.69779 431.83308,183.48257 430.46766,182.53363 M 448.70947,117.68371 L 447.46013,117.68371 L 438.4348,152.30355 C 440.20982,152.2899 441.85514,152.11922 443.39122,151.81884 L 451.13308,122.10762 L 454.84697,122.10762 C 456.27382,122.10762 457.5573,122.23051 458.77251,122.44215 C 456.05535,117.69736 450.83269,117.68371 448.70947,117.68371 M 496.15047,125.35729 C 496.25288,126.65442 496.3075,127.97886 496.3075,129.33061 C 496.3075,148.78764 479.9636,166.64031 463.05306,173.52877 C 463.87912,174.47774 464.69837,175.50179 465.46983,176.60094 C 481.91613,170.63411 497.44761,153.56655 497.44761,135.8436 C 497.44761,132.14335 497.01068,128.64109 496.15047,125.35729 M 669.27017,206.2507 L 662.48411,232.26168 L 640.00955,232.26168 L 638.8353,236.69241 L 666.16387,236.69241 L 672.97042,210.56539 C 672.01464,208.72209 670.7175,207.2611 669.27017,206.2507 M 631.68057,212.42916 C 630.13084,213.37129 628.54697,214.06765 626.68319,214.52506 L 622.8464,229.43529 L 620.9007,230.26135 C 617.64421,231.65406 612.04605,233.31304 603.88093,233.31304 C 602.09225,233.31304 600.34452,233.17649 598.63095,232.93755 C 602.55649,234.63747 606.9053,235.57277 611.49306,235.57277 C 618.38153,235.57277 623.30381,234.26881 626.34184,233.06044 L 631.68057,212.42916 M 647.58071,150.75382 C 646.52935,150.03699 645.22539,149.29966 643.71662,148.58965 L 638.8626,167.38445 C 640.28945,168.31292 641.49784,169.33699 642.54237,170.32007 L 647.58071,150.75382 M 681.30621,178.55346 C 685.40926,171.83568 691.17128,166.49011 696.74213,164.82431 C 696.85135,164.27815 696.90598,163.72516 696.90598,163.19266 C 696.90598,161.8887 696.62606,161.0558 695.4245,160.74859 C 687.9967,161.916 679.89303,170.16987 675.58518,179.98031 C 677.57866,179.65944 679.49706,179.18155 681.30621,178.55346 M 705.49436,228.75257 C 705.49436,232.65764 706.52525,232.83514 708.87375,232.83514 C 709.04442,232.83514 709.2151,232.82831 709.39942,232.80784 C 709.43356,231.3605 709.48135,229.83807 709.48135,228.02891 C 709.48135,221.3316 707.39911,214.5865 704.14945,209.44575 C 705.0984,212.84561 705.63774,216.40249 705.63774,219.94571 L 705.56946,224.81339 L 705.49436,228.75257"
       id="text_HRschatten"
       style="fill:#231f20;fill-opacity:1;fill-rule:evenodd;stroke:none" /><path
       d="M 313.27495,344.99634 C 296.55557,344.99634 288.14468,335.34292 288.14468,320.26885 C 288.14468,306.06864 296.65797,293.22017 315.77365,293.22017 C 318.78436,293.22017 322.83961,293.60249 326.02784,294.47635 L 324.96283,305.38594 C 321.7746,304.33458 318.3884,303.75428 315.1046,303.75428 C 306.50255,303.75428 301.58026,309.93956 301.58026,319.11509 C 301.58026,328.87772 306.99409,333.88876 315.69172,333.88876 C 319.15985,333.88876 322.6348,333.21971 325.35196,331.86114 L 326.41015,342.87312 C 322.25932,344.23854 317.9105,344.99634 313.27495,344.99634 M 368.85376,344.23854 L 365.76795,335.44533 L 346.34506,335.44533 L 343.15684,344.23854 L 330.59511,344.23854 L 349.25338,293.99162 L 364.03389,293.99162 L 382.58291,344.23854 L 368.85376,344.23854 M 358.42208,314.57511 C 357.54821,312.25392 356.59925,309.35244 356.01214,307.12682 L 355.90973,307.12682 C 355.3226,309.35244 354.5648,311.96036 353.68411,314.27472 L 349.25338,326.45414 L 362.76406,326.45414 L 358.42208,314.57511 M 401.71906,303.75428 L 401.71906,314.67069 L 418.7047,314.67069 L 418.7047,324.2217 L 401.71906,324.2217 L 401.71906,344.23854 L 389.24609,344.23854 L 389.24609,293.99162 L 419.68779,293.99162 L 419.68779,303.75428 L 401.71906,303.75428 M 429.14322,344.23854 L 429.14322,293.99162 L 460.06282,293.99162 L 460.06282,303.75428 L 441.59571,303.75428 L 441.59571,313.79683 L 459.19579,313.79683 L 459.19579,323.26591 L 441.59571,323.26591 L 441.59571,334.2779 L 460.06282,334.2779 L 460.06282,344.23854 L 429.14322,344.23854"
       id="text_CAFE"
       style="fill:#231f20;fill-opacity:1;fill-rule:nonzero;stroke:none" /><path
       d="M 611.85489,261.46086 C 611.50671,261.02392 611.19268,260.60747 610.88545,260.32075 C 612.87212,260.21151 614.34676,259.11919 614.34676,257.2281 C 614.34676,255.41894 612.98817,254.43585 610.5168,254.43585 C 609.2538,254.43585 608.22974,254.46999 607.57435,254.49046 L 607.57435,265.2362 L 609.16505,265.2362 L 609.16505,260.45046 L 609.21284,260.45046 L 612.99501,265.2362 L 614.98167,265.2362 L 611.85489,261.46086 M 609.16505,259.31717 L 609.16505,255.70568 C 609.45861,255.65789 609.79314,255.65106 610.31199,255.65106 C 611.77298,255.65106 612.70145,256.22452 612.70145,257.4056 C 612.70145,258.60034 611.79345,259.36496 610.37342,259.36496 C 609.92967,259.36496 609.47909,259.34447 609.16505,259.31717 M 610.84449,249.93001 C 605.35556,249.93001 600.90435,254.39489 600.90435,259.8565 C 600.90435,265.42736 605.17124,269.80349 610.84449,269.80349 C 616.23101,269.80349 620.79147,265.24985 620.79147,259.8565 C 620.79147,254.23786 616.46314,249.93001 610.84449,249.93001 M 610.84449,268.54731 C 606.11336,268.54731 602.31754,264.46475 602.31754,259.74045 C 602.31754,255.0298 606.11336,251.15887 610.84449,251.15887 C 615.57562,251.15887 619.37828,255.24144 619.37828,259.95209 C 619.37828,264.68321 615.57562,268.54731 610.84449,268.54731"
       id="text_R"
       style="fill:#231f20;fill-opacity:1;fill-rule:nonzero;stroke:none" /></g></svg>