<svg width="149" height="46" viewBox="0 0 149 46" fill="none" xmlns="http://www.w3.org/2000/svg">
<path d="M8.34861 45.3219H0.186035V25.3074H8.98447C12.787 25.3074 15.2086 27.283 15.2086 30.3389C15.2727 32.2536 14.1228 34.0006 12.3393 34.6998C14.8369 35.705 16.0295 37.2717 16.0295 39.6577C16.0295 42.9746 13.9053 45.3204 8.35098 45.3204M7.53085 29.2175H5.10446V33.02H7.30387C9.50328 33.02 10.0996 32.4229 10.0996 31.1567C10.0996 30.2234 9.68993 29.2175 7.52769 29.2175M7.56486 36.934H5.21913V41.4815H7.57118C9.36092 41.4815 10.4041 40.6977 10.4041 39.0954C10.4041 37.6054 9.50961 36.934 7.57118 36.934" fill="#BE0919"/>
<path d="M34.4029 43.6453C33.3218 44.6908 31.2718 45.6952 28.1408 45.6952C24.8231 45.6952 22.2883 44.8008 20.9478 43.1621C20.0905 42.0438 19.8667 40.776 19.8667 38.9119V25.3454H24.9362V38.3528C24.9362 39.5454 24.9734 40.1821 25.3459 40.6637C25.9928 41.4206 26.9624 41.8231 27.9549 41.7456C28.8114 41.7583 29.645 41.4672 30.307 40.9239C30.7167 40.5522 31.014 40.0294 31.014 37.9415V25.3446H36.0835V38.613C36.0835 41.5582 35.5244 42.5634 34.4069 43.6445" fill="#BE0919"/>
<path d="M46.8901 45.7688C44.3475 45.7664 41.8388 45.193 39.5469 44.0921L41.1871 40.2904C43.0425 41.2157 45.0782 41.7243 47.1511 41.7812C49.5031 41.7812 50.6918 41.1857 50.6918 39.8056C50.6918 38.7245 49.9081 37.9415 48.0827 37.5698L45.548 36.9743C43.3858 36.4144 41.9321 35.4827 41.1879 34.1406C40.6399 33.2026 40.3567 32.1342 40.3678 31.0483C40.3678 27.3581 43.6847 24.6739 48.494 24.6739C51.1901 24.6628 53.8403 25.3707 56.1718 26.7238L53.8197 30.1902C52.2269 29.2776 50.4364 28.7659 48.6016 28.7002C47.0333 28.7002 45.9173 29.4073 45.9173 30.5295C45.9173 31.4983 46.3278 31.9459 48.0084 32.3177L50.6918 32.9511C54.1962 33.7713 56.3545 35.7089 56.3545 38.7656C56.3545 43.0158 52.5899 45.7735 46.8877 45.7735" fill="#BE0919"/>
<path d="M66.1595 25.3454H60.9785V45.3235H66.1595V25.3454Z" fill="#BE0919"/>
<path d="M82.6739 32.6506L82.5996 25.3074H87.2167V45.3219L82.11 45.2848L78.3834 37.123C77.5261 35.2589 76.7432 33.47 76.184 32.0163C76.2584 33.5846 76.2955 36.34 76.3327 37.679L76.445 45.3196H71.748V25.3074H77.1908L81.0677 33.0223C81.7945 34.5187 82.4169 36.0624 82.9317 37.6442C82.7839 35.8149 82.6708 34.0663 82.6708 32.6506" fill="#BE0919"/>
<path d="M92.7749 45.322V25.2686H105.484L104.777 29.1455H97.7329V32.8721H103.621V36.7861H97.8444V41.2593H105.71V45.3212H92.7757L92.7749 45.322Z" fill="#BE0919"/>
<path d="M115.734 45.7688C113.192 45.7664 110.683 45.193 108.391 44.0921L110.031 40.2904C111.888 41.2157 113.923 41.7243 115.996 41.7812C118.343 41.7812 119.535 41.1857 119.535 39.8056C119.535 38.7245 118.752 37.9415 116.926 37.5698L114.393 36.9743C112.231 36.4144 110.777 35.4827 110.031 34.1406C109.483 33.2026 109.199 32.1342 109.21 31.0483C109.21 27.3581 112.529 24.6739 117.337 24.6739C120.033 24.6628 122.683 25.3707 125.015 26.7238L122.663 30.1902C121.07 29.2776 119.279 28.7659 117.444 28.7002C115.876 28.7002 114.76 29.4073 114.76 30.5295C114.76 31.4983 115.17 31.9459 116.851 32.3177L119.534 32.9511C123.037 33.7713 125.197 35.7089 125.197 38.7656C125.197 43.0158 121.432 45.7735 115.73 45.7735" fill="#BE0919"/>
<path d="M135.528 45.7688C132.986 45.7664 130.477 45.193 128.185 44.0921L129.825 40.2904C131.681 41.2157 133.717 41.7243 135.79 41.7812C138.142 41.7812 139.329 41.1857 139.329 39.8056C139.329 38.7245 138.545 37.9415 136.72 37.5698L134.186 36.9743C132.024 36.4144 130.57 35.4827 129.825 34.1406C129.277 33.2026 128.994 32.1342 129.005 31.0483C129.005 27.3581 132.322 24.6739 137.131 24.6739C139.827 24.6628 142.477 25.3707 144.809 26.7238L142.457 30.1902C140.865 29.2776 139.073 28.7659 137.238 28.7002C135.67 28.7002 134.555 29.4073 134.555 30.5295C134.555 31.4983 134.965 31.9459 136.646 32.3177L139.33 32.9511C142.832 33.7713 144.992 35.7089 144.992 38.7656C144.992 43.0158 141.228 45.7735 135.525 45.7735" fill="#BE0919"/>
<path d="M1.86329 0.32222H5.69664L9.10846 10.942C9.52999 12.3118 10.1279 14.8442 10.1279 14.8442C10.1279 14.8442 10.7258 12.4526 11.1473 11.0464L14.5212 0.32222H18.5641L20.3222 18.676H17.5439L16.4509 6.89673C16.3101 5.24143 16.2769 3.02937 16.2769 3.02937C16.0025 4.3003 15.6616 5.55541 15.2575 6.79075L11.2857 18.6752H8.82453L4.95718 6.75279C4.5657 5.51666 4.23748 4.26155 3.97333 2.9922C3.97333 2.9922 3.86736 5.17026 3.72658 6.75279L2.67156 18.6767H0L1.86329 0.32222Z" fill="#1C1C1C"/>
<path d="M25.1743 0.39418H36.6016L36.2157 2.74623H27.9874V7.94858H34.8783V10.3006H28.0222V16.2068H36.918V18.668H25.1743V0.39418Z" fill="#1C1C1C"/>
<path d="M41.6655 0.42897H45.8136C47.0798 0.42897 48.3104 0.498567 49.1187 0.569745C50.6743 0.750855 52.1422 1.38751 53.338 2.39903C55.2709 4.05432 56.1155 6.15962 56.1155 9.53664C56.1155 15.654 52.1082 18.3256 49.541 18.5731C48.6995 18.6522 47.8549 18.6878 47.0094 18.6783H41.6655V0.42897ZM44.4787 2.74938V16.3563H46.7287C47.5188 16.3903 48.3096 16.3191 49.0807 16.1451C51.3308 15.6532 53.0541 13.9299 53.0541 9.71142C53.0541 7.10945 52.5621 5.53008 51.3988 4.33113C50.1326 3.03014 48.7976 2.74938 46.7927 2.74938H44.4779H44.4787Z" fill="#1C1C1C"/>
<path d="M63.6705 0.287415H60.8574V18.6752H63.6705V0.287415Z" fill="#1C1C1C"/>
<path d="M77.4911 0.32222L84.2768 18.676H81.1125L79.2484 13.5772H71.8656L69.9676 18.676H67.1196L73.9741 0.32222H77.4911ZM72.6352 11.256H78.577C78.471 11.0464 75.6231 2.81821 75.6231 2.81821L72.6352 11.256Z" fill="#1C1C1C"/>
<path d="M100.644 1.484L99.2018 3.38684C98.1081 2.66319 96.8221 2.28357 95.5109 2.29702C93.3605 2.24008 91.3778 3.4509 90.4469 5.3909C89.8609 6.76465 89.5967 8.25465 89.675 9.74702C89.675 12.2786 90.1314 13.5804 91.3303 14.8798C92.4367 16.0898 94.0161 16.7581 95.6548 16.7091C96.9012 16.7075 98.1255 16.38 99.2058 15.7592C99.277 15.7244 99.417 15.654 99.5933 15.5481L100.999 17.3773C99.3126 18.4861 97.322 19.039 95.3044 18.9591C90.1709 18.9591 86.5503 15.0917 86.5503 9.63788C86.5503 4.18404 90.4169 0.00428519 95.48 0.00428519C97.3125 -0.0320948 99.1133 0.484344 100.648 1.48559" fill="#1C1C1C"/>
<path d="M111.596 0.00665587C114.141 -0.0961573 116.586 0.996826 118.206 2.96056C119.541 4.5423 120.139 6.65155 120.139 9.60545C120.139 12.5594 119.647 14.5626 118.275 16.2155C116.693 18.1492 114.829 18.9931 111.807 18.9931C109.029 18.9931 107.271 18.2908 105.724 16.5667C104.005 14.5998 103.121 12.0398 103.262 9.43067C103.263 3.59563 106.427 0.00902848 111.596 0.00902848M111.49 2.29385C109.922 2.23217 108.419 2.92497 107.447 4.15794C106.709 5.24775 106.392 6.79391 106.392 9.08031C106.392 11.6467 106.814 13.6515 107.658 14.9517C108.36 16.1467 109.873 16.815 111.878 16.815C114.093 16.815 115.64 15.9372 116.308 14.2139C116.832 12.8591 117.059 11.4086 116.976 9.95897C116.976 7.46377 116.694 5.91604 116.062 4.68465C115.147 2.96214 113.566 2.29385 111.49 2.29385Z" fill="#1C1C1C"/>
<path d="M125.345 0.322217H129.178L132.587 10.942C133.009 12.3118 133.606 14.8442 133.606 14.8442C133.606 14.8442 134.204 12.4526 134.627 11.0464L138.001 0.322217H142.044L143.802 18.6759H141.025L139.934 6.89672C139.794 5.24143 139.76 3.02937 139.76 3.02937C139.485 4.2995 139.145 5.55541 138.741 6.79075L134.765 18.6752H132.304L128.439 6.7512C128.047 5.51507 127.719 4.25996 127.454 2.99061C127.454 2.99061 127.348 5.16867 127.208 6.7512L126.153 18.6712H123.481L125.345 0.321426V0.322217Z" fill="#1C1C1C"/>
<path d="M145.982 0.485921L145.862 0.683639C145.702 0.560263 145.506 0.491457 145.304 0.489085C145.017 0.489085 144.847 0.633814 144.847 0.867121C144.847 1.0506 144.957 1.15816 145.228 1.24199L145.49 1.32503C145.645 1.35904 145.785 1.43892 145.894 1.55518C145.989 1.66827 146.042 1.81142 146.045 1.95931C146.038 2.18471 145.919 2.39113 145.728 2.51055C145.574 2.60862 145.395 2.65765 145.213 2.65053C144.953 2.6537 144.698 2.58173 144.478 2.44333L144.597 2.229C144.775 2.36108 144.991 2.43067 145.212 2.42672C145.342 2.43858 145.471 2.40299 145.576 2.32628C145.681 2.25114 145.743 2.12856 145.74 1.99886C145.74 1.79481 145.607 1.65483 145.328 1.571L145.098 1.5014C144.946 1.47055 144.805 1.40017 144.69 1.29735C144.595 1.19612 144.543 1.06167 144.545 0.922482C144.548 0.553936 144.85 0.25736 145.218 0.260523C145.241 0.260523 145.264 0.262105 145.287 0.264477C145.535 0.264477 145.777 0.341983 145.979 0.48513" fill="#1C1C1C"/>
<path d="M146.974 0.316676H147.375L147.793 1.81221C147.83 1.94429 147.859 2.07794 147.88 2.21318C147.916 2.01863 147.933 1.95615 147.967 1.8391L148.398 0.315094H148.802L149 2.60704H148.726L148.592 0.926437C148.582 0.780126 148.575 0.536538 148.575 0.536538C148.551 0.649632 148.512 0.806225 148.488 0.897175L147.995 2.60783H147.762L147.308 0.981007C147.262 0.807015 147.227 0.69313 147.195 0.533374C147.195 0.533374 147.178 0.836278 147.168 0.977053L147.038 2.60783H146.776L146.974 0.315885V0.316676Z" fill="#1C1C1C"/>
</svg>
