<?xml version="1.0" encoding="UTF-8"?>
<!DOCTYPE svg PUBLIC "-//W3C//DTD SVG 1.1//EN" "http://www.w3.org/Graphics/SVG/1.1/DTD/svg11.dtd">
<svg xmlns="http://www.w3.org/2000/svg" version="1.1" width="1200px" height="252px" style="shape-rendering:geometricPrecision; text-rendering:geometricPrecision; image-rendering:optimizeQuality; fill-rule:evenodd; clip-rule:evenodd" xmlns:xlink="http://www.w3.org/1999/xlink">
<g><path style="opacity:0.974" fill="#002039" d="M 64.5,-0.5 C 71.5,-0.5 78.5,-0.5 85.5,-0.5C 123.365,2.36504 144.032,22.6984 147.5,60.5C 134.833,60.5 122.167,60.5 109.5,60.5C 106.946,43.3654 96.9463,34.1987 79.5,33C 68.9264,31.4289 58.9264,33.0956 49.5,38C 35.8068,52.533 38.1401,63.8664 56.5,72C 78.5,78.3333 100.5,84.6667 122.5,91C 138.456,96.6213 148.456,107.621 152.5,124C 158.24,168.931 138.573,193.931 93.5,199C 75.9191,200.577 58.5857,199.243 41.5,195C 17.9659,186.974 3.96593,170.807 -0.5,146.5C -0.5,142.833 -0.5,139.167 -0.5,135.5C 12.5,135.5 25.5,135.5 38.5,135.5C 40.0437,148.872 47.0437,158.039 59.5,163C 75.0966,168.159 90.4299,167.492 105.5,161C 114.313,154.213 116.813,145.713 113,135.5C 108.564,129.518 102.731,125.352 95.5,123C 90.6366,120.934 85.6366,119.268 80.5,118C 61.1863,114.839 42.5196,109.506 24.5,102C 10.7281,92.972 3.22805,80.1387 2,63.5C -0.205715,31.7223 13.961,11.5557 44.5,3C 51.2566,1.50173 57.9233,0.33506 64.5,-0.5 Z"/></g>
<g><path style="opacity:0.99" fill="#002039" d="M 593.5,5.5 C 601.174,5.33365 608.841,5.50031 616.5,6C 625.873,8.04288 631.04,13.8762 632,23.5C 632.5,32.1603 632.666,40.8269 632.5,49.5C 639.833,49.5 647.167,49.5 654.5,49.5C 654.5,62.5 654.5,75.5 654.5,88.5C 646.833,88.5 639.167,88.5 631.5,88.5C 631.5,124.167 631.5,159.833 631.5,195.5C 622.75,195.91 614.084,195.41 605.5,194C 598.887,190.958 595.054,185.791 594,178.5C 593.5,120.834 593.333,63.1676 593.5,5.5 Z"/></g>
<g><path style="opacity:0.974" fill="#002039" d="M 184.5,251.5 C 176.5,251.5 168.5,251.5 160.5,251.5C 160.333,204.499 160.5,157.499 161,110.5C 161.529,95.2503 165.863,81.2503 174,68.5C 182.872,57.9696 194.039,51.1362 207.5,48C 234.255,40.7518 258.588,45.4185 280.5,62C 292.437,75.1264 298.937,90.6264 300,108.5C 303.057,132.844 298.39,155.51 286,176.5C 271.275,195.97 251.775,203.47 227.5,199C 217.678,197.56 208.678,194.06 200.5,188.5C 199.667,204.49 199.167,220.49 199,236.5C 196.649,244.016 191.816,249.016 184.5,251.5 Z M 224.5,79.5 C 239.679,77.8362 250.513,83.8362 257,97.5C 263.492,116.119 262.826,134.453 255,152.5C 243.758,167.432 229.925,170.265 213.5,161C 205.405,153.643 200.905,144.476 200,133.5C 198.017,118.732 200.35,104.732 207,91.5C 211.39,85.2581 217.223,81.2581 224.5,79.5 Z"/></g>
<g><path style="opacity:0.984" fill="#002039" d="M 948.5,44.5 C 964.438,44.1538 979.438,47.6538 993.5,55C 994.729,56.5292 996.229,57.6959 998,58.5C 1005.04,52.3965 1013.21,48.5632 1022.5,47C 1050.07,41.649 1075.73,46.3157 1099.5,61C 1102.7,63.8688 1105.54,67.0354 1108,70.5C 1108.5,112.499 1108.67,154.499 1108.5,196.5C 1100.16,196.666 1091.83,196.5 1083.5,196C 1075.71,195.028 1070.54,190.862 1068,183.5C 1067.97,153.119 1067.3,122.785 1066,92.5C 1064.72,86.8865 1061.55,82.7199 1056.5,80C 1044.94,74.9806 1033.94,75.9806 1023.5,83C 1020.16,86.5213 1017.99,90.6879 1017,95.5C 1016.5,129.165 1016.33,162.832 1016.5,196.5C 1003.5,196.5 990.5,196.5 977.5,196.5C 977.966,162.126 977.466,127.793 976,93.5C 972.14,82.2183 964.14,76.5516 952,76.5C 939.901,76.5369 931.901,82.2036 928,93.5C 926.542,127.798 926.042,162.131 926.5,196.5C 913.5,196.5 900.5,196.5 887.5,196.5C 887.333,162.832 887.5,129.165 888,95.5C 891.062,70.7712 904.562,54.9379 928.5,48C 935.254,46.5018 941.921,45.3351 948.5,44.5 Z"/></g>
<g><path style="opacity:0.977" fill="#002039" d="M 364.5,45.5 C 381.31,44.019 397.31,46.8523 412.5,54C 426.878,62.5537 436.044,75.0537 440,91.5C 443.15,104.976 444.65,118.643 444.5,132.5C 412.5,132.5 380.5,132.5 348.5,132.5C 351.414,160.893 366.747,171.393 394.5,164C 401.523,161.482 405.857,156.648 407.5,149.5C 418.833,149.5 430.167,149.5 441.5,149.5C 436.116,175.385 420.449,191.218 394.5,197C 372.479,202.027 352.146,198.36 333.5,186C 318.274,172.687 310.107,155.854 309,135.5C 306.944,117.349 308.944,99.6821 315,82.5C 324.623,60.7899 341.123,48.4565 364.5,45.5 Z M 370.5,78.5 C 391.12,77.1161 402.12,86.7828 403.5,107.5C 385.167,107.5 366.833,107.5 348.5,107.5C 349.179,92.5193 356.513,82.8527 370.5,78.5 Z"/></g>
<g><path style="opacity:0.969" fill="#002039" d="M 509.5,45.5 C 530.351,43.21 549.018,48.3766 565.5,61C 574.78,70.052 581.113,80.8853 584.5,93.5C 571.167,94.8333 557.833,94.8333 544.5,93.5C 537.816,81.1605 527.482,76.3272 513.5,79C 503.869,81.2959 497.369,87.1292 494,96.5C 489.36,113.161 489.36,129.828 494,146.5C 501.086,163.126 513.586,169.293 531.5,165C 539.647,162.856 545.313,157.856 548.5,150C 560.829,149.5 573.162,149.333 585.5,149.5C 576.16,182.32 554.327,198.653 520,198.5C 486.08,198.894 464.413,182.894 455,150.5C 450.071,127.912 451.071,105.578 458,83.5C 467.965,60.9464 485.132,48.2797 509.5,45.5 Z"/></g>
<g><path style="opacity:0.985" fill="#002039" d="M 723.5,48.5 C 728.5,48.5 733.5,48.5 738.5,48.5C 738.5,61.8333 738.5,75.1667 738.5,88.5C 729.025,87.9891 719.691,88.8225 710.5,91C 700.391,96.3663 695.225,104.866 695,116.5C 694.5,142.831 694.333,169.165 694.5,195.5C 681.5,195.5 668.5,195.5 655.5,195.5C 655.333,167.498 655.5,139.498 656,111.5C 658.583,80.5845 674.75,60.7512 704.5,52C 710.933,50.5968 717.267,49.4302 723.5,48.5 Z"/></g>
<g><path style="opacity:0.971" fill="#002039" d="M 748.5,48.5 C 761.833,48.5 775.167,48.5 788.5,48.5C 788.333,82.1683 788.5,115.835 789,149.5C 792.424,161.55 800.424,167.55 813,167.5C 824.788,167.693 832.788,162.36 837,151.5C 838.301,122.215 838.968,92.8815 839,63.5C 840.536,55.2971 845.37,50.4637 853.5,49C 861.493,48.5003 869.493,48.3336 877.5,48.5C 877.667,81.5017 877.5,114.502 877,147.5C 874.425,175.073 859.591,191.573 832.5,197C 812.373,200.749 793.039,198.416 774.5,190C 758.373,179.258 749.873,164.092 749,144.5C 748.5,112.502 748.333,80.5017 748.5,48.5 Z"/></g>
<g><path style="opacity:0.967" fill="#0270eb" d="M 1199.5,133.5 C 1199.5,134.167 1199.5,134.833 1199.5,135.5C 1172.83,156.001 1145.99,176.334 1119,196.5C 1118.17,155.496 1118.33,114.496 1119.5,73.5C 1146.2,93.509 1172.86,113.509 1199.5,133.5 Z"/></g>
</svg>
